<?xml version="1.0" ?><!DOCTYPE svg  PUBLIC '-//W3C//DTD SVG 1.1//EN'  'http://www.w3.org/Graphics/SVG/1.1/DTD/svg11.dtd'><svg height="6.82666in" style="shape-rendering:geometricPrecision; text-rendering:geometricPrecision; image-rendering:optimizeQuality; fill-rule:evenodd; clip-rule:evenodd" viewBox="0 0 6.82666 6.82666" width="6.82666in" xml:space="preserve" xmlns="http://www.w3.org/2000/svg" xmlns:xlink="http://www.w3.org/1999/xlink"><defs><style type="text/css">
   <![CDATA[
    .fil1 {fill:none}
    .fil0 {fill:#0A93E2;fill-rule:nonzero}
   ]]>
  </style></defs><g id="Layer_x0020_1"><path class="fil0" d="M2.46703 5.54888c0.113677,0.030374 0.230461,-0.0371575 0.260835,-0.150835 0.030374,-0.113677 -0.0371575,-0.230461 -0.150835,-0.260835 -0.466854,-0.125091 -0.838799,-0.427543 -1.06273,-0.815406 -0.223752,-0.387547 -0.299567,-0.860783 -0.174425,-1.32783 0.125091,-0.466854 0.427543,-0.838795 0.815406,-1.06273 0.387547,-0.223752 0.860783,-0.299571 1.32783,-0.174429 0.466854,0.125091 0.838795,0.427543 1.06273,0.815406 0.223752,0.387547 0.299571,0.860783 0.174429,1.32783 -0.030374,0.113677 0.0371575,0.230461 0.150835,0.260835 0.113677,0.030374 0.230461,-0.0371575 0.260835,-0.150835 0.155433,-0.580094 0.0608307,-1.16861 -0.217768,-1.65116 -0.278421,-0.482236 -0.740776,-0.85826 -1.32106,-1.01374 -0.580094,-0.155433 -1.16861,-0.0608307 -1.65116,0.217768 -0.482236,0.278421 -0.85826,0.740776 -1.01374,1.32106 -0.155433,0.580094 -0.0608346,1.16861 0.217764,1.65116 0.278421,0.482236 0.74078,0.85826 1.32106,1.01374z"/><path class="fil0" d="M5.895 3.43303c0.0906654,-0.0745551 0.10372,-0.2085 0.0291654,-0.299165 -0.0745551,-0.0906654 -0.2085,-0.10372 -0.299165,-0.0291654l-0.669823 0.551189 -0.551102 -0.669724c-0.0745551,-0.0906654 -0.2085,-0.10372 -0.299165,-0.0291654 -0.0906654,0.0745551 -0.10372,0.2085 -0.0291654,0.299165l0.674638 0.81985c0.00343307,0.00497244 0.00708661,0.00985039 0.0109961,0.0146024 0.0748622,0.0909764 0.209307,0.104035 0.300283,0.0291732l-0.0005 -0.000606299 0.833839 -0.686154z"/></g><rect class="fil1" height="6.82666" width="6.82666"/></svg>